solid OpenSCAD_Model
  facet normal -0.993074 -0.117488 0
    outer loop
      vertex -47.3523 -48.3772 0
      vertex -47.463 -47.4415 3.2
      vertex -47.463 -47.4415 0
    endloop
  endfacet
  facet normal -0.993074 -0.117488 0
    outer loop
      vertex -47.463 -47.4415 3.2
      vertex -47.3523 -48.3772 0
      vertex -47.3523 -48.3772 3.2
    endloop
  endfacet
  facet normal -0.999229 -0.0392687 0
    outer loop
      vertex -47.463 -47.4415 0
      vertex -47.5 -46.5 3.2
      vertex -47.5 -46.5 0
    endloop
  endfacet
  facet normal -0.999229 -0.0392687 0
    outer loop
      vertex -47.5 -46.5 3.2
      vertex -47.463 -47.4415 0
      vertex -47.463 -47.4415 3.2
    endloop
  endfacet
  facet normal 0.872495 -0.488623 0
    outer loop
      vertex 45.7317 -52.77 3.2
      vertex 46.1921 -51.9479 0
      vertex 46.1921 -51.9479 3.2
    endloop
  endfacet
  facet normal 0.872495 -0.488623 0
    outer loop
      vertex 46.1921 -51.9479 0
      vertex 45.7317 -52.77 3.2
      vertex 45.7317 -52.77 0
    endloop
  endfacet
  facet normal -0.872495 0.488623 0
    outer loop
      vertex -46.1921 51.9479 0
      vertex -45.7317 52.77 3.2
      vertex -45.7317 52.77 0
    endloop
  endfacet
  facet normal -0.872495 0.488623 0
    outer loop
      vertex -45.7317 52.77 3.2
      vertex -46.1921 51.9479 0
      vertex -46.1921 51.9479 3.2
    endloop
  endfacet
  facet normal 1 -0 0
    outer loop
      vertex 47.5 -46.5 3.2
      vertex 47.5 46.5 0
      vertex 47.5 46.5 3.2
    endloop
  endfacet
  facet normal 1 0 0
    outer loop
      vertex 47.5 46.5 0
      vertex 47.5 -46.5 3.2
      vertex 47.5 -46.5 0
    endloop
  endfacet
  facet normal 0.993074 0.117488 0
    outer loop
      vertex 47.463 47.4415 3.2
      vertex 47.3523 48.3772 0
      vertex 47.3523 48.3772 3.2
    endloop
  endfacet
  facet normal 0.993074 0.117488 0
    outer loop
      vertex 47.3523 48.3772 0
      vertex 47.463 47.4415 3.2
      vertex 47.463 47.4415 0
    endloop
  endfacet
  facet normal 0.9382 0.346094 0
    outer loop
      vertex 46.9127 50.2082 3.2
      vertex 46.5866 51.0922 0
      vertex 46.5866 51.0922 3.2
    endloop
  endfacet
  facet normal 0.9382 0.346094 0
    outer loop
      vertex 46.5866 51.0922 0
      vertex 46.9127 50.2082 3.2
      vertex 46.9127 50.2082 0
    endloop
  endfacet
  facet normal -1 0 0
    outer loop
      vertex -47.5 -46.5 0
      vertex -47.5 46.5 3.2
      vertex -47.5 46.5 0
    endloop
  endfacet
  facet normal -1 -0 0
    outer loop
      vertex -47.5 46.5 3.2
      vertex -47.5 -46.5 0
      vertex -47.5 -46.5 3.2
    endloop
  endfacet
  facet normal -0.0392687 0.999229 0
    outer loop
      vertex -35.5 58.5 0
      vertex -36.4415 58.463 3.2
      vertex -35.5 58.5 3.2
    endloop
  endfacet
  facet normal -0.0392687 0.999229 0
    outer loop
      vertex -36.4415 58.463 3.2
      vertex -35.5 58.5 0
      vertex -36.4415 58.463 0
    endloop
  endfacet
  facet normal 0.785353 0.619049 0
    outer loop
      vertex 45.2082 53.5534 3.2
      vertex 44.6249 54.2934 0
      vertex 44.6249 54.2934 3.2
    endloop
  endfacet
  facet normal 0.785353 0.619049 0
    outer loop
      vertex 44.6249 54.2934 0
      vertex 45.2082 53.5534 3.2
      vertex 45.2082 53.5534 0
    endloop
  endfacet
  facet normal 0.195177 0.980768 -0
    outer loop
      vertex 38.3013 58.1684 0
      vertex 37.3772 58.3523 3.2
      vertex 38.3013 58.1684 3.2
    endloop
  endfacet
  facet normal 0.195177 0.980768 0
    outer loop
      vertex 37.3772 58.3523 3.2
      vertex 38.3013 58.1684 0
      vertex 37.3772 58.3523 0
    endloop
  endfacet
  facet normal 0.271369 0.962475 -0
    outer loop
      vertex 39.2082 57.9127 0
      vertex 38.3013 58.1684 3.2
      vertex 39.2082 57.9127 3.2
    endloop
  endfacet
  facet normal 0.271369 0.962475 0
    outer loop
      vertex 38.3013 58.1684 3.2
      vertex 39.2082 57.9127 0
      vertex 38.3013 58.1684 0
    endloop
  endfacet
  facet normal 0.980768 -0.195177 0
    outer loop
      vertex 47.1684 -49.3013 3.2
      vertex 47.3523 -48.3772 0
      vertex 47.3523 -48.3772 3.2
    endloop
  endfacet
  facet normal 0.980768 -0.195177 0
    outer loop
      vertex 47.3523 -48.3772 0
      vertex 47.1684 -49.3013 3.2
      vertex 47.1684 -49.3013 0
    endloop
  endfacet
  facet normal 0.555606 -0.831446 0
    outer loop
      vertex 41.77 -56.7317 0
      vertex 42.5534 -56.2082 3.2
      vertex 41.77 -56.7317 3.2
    endloop
  endfacet
  facet normal 0.555606 -0.831446 0
    outer loop
      vertex 42.5534 -56.2082 3.2
      vertex 41.77 -56.7317 0
      vertex 42.5534 -56.2082 0
    endloop
  endfacet
  facet normal 0.999229 0.0392687 0
    outer loop
      vertex 47.5 46.5 3.2
      vertex 47.463 47.4415 0
      vertex 47.463 47.4415 3.2
    endloop
  endfacet
  facet normal 0.999229 0.0392687 0
    outer loop
      vertex 47.463 47.4415 0
      vertex 47.5 46.5 3.2
      vertex 47.5 46.5 0
    endloop
  endfacet
  facet normal 0.980768 0.195177 0
    outer loop
      vertex 47.3523 48.3772 3.2
      vertex 47.1684 49.3013 0
      vertex 47.1684 49.3013 3.2
    endloop
  endfacet
  facet normal 0.980768 0.195177 0
    outer loop
      vertex 47.1684 49.3013 0
      vertex 47.3523 48.3772 3.2
      vertex 47.3523 48.3772 0
    endloop
  endfacet
  facet normal -0.993074 0.117488 0
    outer loop
      vertex -47.463 47.4415 0
      vertex -47.3523 48.3772 3.2
      vertex -47.3523 48.3772 0
    endloop
  endfacet
  facet normal -0.993074 0.117488 0
    outer loop
      vertex -47.3523 48.3772 3.2
      vertex -47.463 47.4415 0
      vertex -47.463 47.4415 3.2
    endloop
  endfacet
  facet normal 0 1 -0
    outer loop
      vertex 35.5 58.5 0
      vertex -35.5 58.5 3.2
      vertex 35.5 58.5 3.2
    endloop
  endfacet
  facet normal 0 1 0
    outer loop
      vertex -35.5 58.5 3.2
      vertex 35.5 58.5 0
      vertex -35.5 58.5 0
    endloop
  endfacet
  facet normal -0.831446 0.555606 0
    outer loop
      vertex -45.7317 52.77 0
      vertex -45.2082 53.5534 3.2
      vertex -45.2082 53.5534 0
    endloop
  endfacet
  facet normal -0.831446 0.555606 0
    outer loop
      vertex -45.2082 53.5534 3.2
      vertex -45.7317 52.77 0
      vertex -45.7317 52.77 3.2
    endloop
  endfacet
  facet normal -0.908136 0.418675 0
    outer loop
      vertex -46.5866 51.0922 0
      vertex -46.1921 51.9479 3.2
      vertex -46.1921 51.9479 0
    endloop
  endfacet
  facet normal -0.908136 0.418675 0
    outer loop
      vertex -46.1921 51.9479 3.2
      vertex -46.5866 51.0922 0
      vertex -46.5866 51.0922 3.2
    endloop
  endfacet
  facet normal 0.555606 0.831446 -0
    outer loop
      vertex 42.5534 56.2082 0
      vertex 41.77 56.7317 3.2
      vertex 42.5534 56.2082 3.2
    endloop
  endfacet
  facet normal 0.555606 0.831446 0
    outer loop
      vertex 41.77 56.7317 3.2
      vertex 42.5534 56.2082 0
      vertex 41.77 56.7317 0
    endloop
  endfacet
  facet normal 0.908136 -0.418675 0
    outer loop
      vertex 46.1921 -51.9479 3.2
      vertex 46.5866 -51.0922 0
      vertex 46.5866 -51.0922 3.2
    endloop
  endfacet
  facet normal 0.908136 -0.418675 0
    outer loop
      vertex 46.5866 -51.0922 0
      vertex 46.1921 -51.9479 3.2
      vertex 46.1921 -51.9479 0
    endloop
  endfacet
  facet normal -0.9382 0.346094 0
    outer loop
      vertex -46.9127 50.2082 0
      vertex -46.5866 51.0922 3.2
      vertex -46.5866 51.0922 0
    endloop
  endfacet
  facet normal -0.9382 0.346094 0
    outer loop
      vertex -46.5866 51.0922 3.2
      vertex -46.9127 50.2082 0
      vertex -46.9127 50.2082 3.2
    endloop
  endfacet
  facet normal -0.0392687 -0.999229 0
    outer loop
      vertex -36.4415 -58.463 0
      vertex -35.5 -58.5 3.2
      vertex -36.4415 -58.463 3.2
    endloop
  endfacet
  facet normal -0.0392687 -0.999229 -0
    outer loop
      vertex -35.5 -58.5 3.2
      vertex -36.4415 -58.463 0
      vertex -35.5 -58.5 0
    endloop
  endfacet
  facet normal 0.418675 -0.908136 0
    outer loop
      vertex 40.0922 -57.5866 0
      vertex 40.9479 -57.1921 3.2
      vertex 40.0922 -57.5866 3.2
    endloop
  endfacet
  facet normal 0.418675 -0.908136 0
    outer loop
      vertex 40.9479 -57.1921 3.2
      vertex 40.0922 -57.5866 0
      vertex 40.9479 -57.1921 0
    endloop
  endfacet
  facet normal 0.831446 0.555606 0
    outer loop
      vertex 45.7317 52.77 3.2
      vertex 45.2082 53.5534 0
      vertex 45.2082 53.5534 3.2
    endloop
  endfacet
  facet normal 0.831446 0.555606 0
    outer loop
      vertex 45.2082 53.5534 0
      vertex 45.7317 52.77 3.2
      vertex 45.7317 52.77 0
    endloop
  endfacet
  facet normal 0.117488 -0.993074 0
    outer loop
      vertex 36.4415 -58.463 0
      vertex 37.3772 -58.3523 3.2
      vertex 36.4415 -58.463 3.2
    endloop
  endfacet
  facet normal 0.117488 -0.993074 0
    outer loop
      vertex 37.3772 -58.3523 3.2
      vertex 36.4415 -58.463 0
      vertex 37.3772 -58.3523 0
    endloop
  endfacet
  facet normal 0.785353 -0.619049 0
    outer loop
      vertex 44.6249 -54.2934 3.2
      vertex 45.2082 -53.5534 0
      vertex 45.2082 -53.5534 3.2
    endloop
  endfacet
  facet normal 0.785353 -0.619049 0
    outer loop
      vertex 45.2082 -53.5534 0
      vertex 44.6249 -54.2934 3.2
      vertex 44.6249 -54.2934 0
    endloop
  endfacet
  facet normal -0.195177 0.980768 0
    outer loop
      vertex -37.3772 58.3523 0
      vertex -38.3013 58.1684 3.2
      vertex -37.3772 58.3523 3.2
    endloop
  endfacet
  facet normal -0.195177 0.980768 0
    outer loop
      vertex -38.3013 58.1684 3.2
      vertex -37.3772 58.3523 0
      vertex -38.3013 58.1684 0
    endloop
  endfacet
  facet normal 0.678809 -0.734315 0
    outer loop
      vertex 43.2934 -55.6249 0
      vertex 43.9853 -54.9853 3.2
      vertex 43.2934 -55.6249 3.2
    endloop
  endfacet
  facet normal 0.678809 -0.734315 0
    outer loop
      vertex 43.9853 -54.9853 3.2
      vertex 43.2934 -55.6249 0
      vertex 43.9853 -54.9853 0
    endloop
  endfacet
  facet normal 0.488623 -0.872495 0
    outer loop
      vertex 40.9479 -57.1921 0
      vertex 41.77 -56.7317 3.2
      vertex 40.9479 -57.1921 3.2
    endloop
  endfacet
  facet normal 0.488623 -0.872495 0
    outer loop
      vertex 41.77 -56.7317 3.2
      vertex 40.9479 -57.1921 0
      vertex 41.77 -56.7317 0
    endloop
  endfacet
  facet normal 0.0392687 -0.999229 0
    outer loop
      vertex 35.5 -58.5 0
      vertex 36.4415 -58.463 3.2
      vertex 35.5 -58.5 3.2
    endloop
  endfacet
  facet normal 0.0392687 -0.999229 0
    outer loop
      vertex 36.4415 -58.463 3.2
      vertex 35.5 -58.5 0
      vertex 36.4415 -58.463 0
    endloop
  endfacet
  facet normal -0.346094 -0.9382 0
    outer loop
      vertex -40.0922 -57.5866 0
      vertex -39.2082 -57.9127 3.2
      vertex -40.0922 -57.5866 3.2
    endloop
  endfacet
  facet normal -0.346094 -0.9382 -0
    outer loop
      vertex -39.2082 -57.9127 3.2
      vertex -40.0922 -57.5866 0
      vertex -39.2082 -57.9127 0
    endloop
  endfacet
  facet normal -0.734315 0.678809 0
    outer loop
      vertex -44.6249 54.2934 0
      vertex -43.9853 54.9853 3.2
      vertex -43.9853 54.9853 0
    endloop
  endfacet
  facet normal -0.734315 0.678809 0
    outer loop
      vertex -43.9853 54.9853 3.2
      vertex -44.6249 54.2934 0
      vertex -44.6249 54.2934 3.2
    endloop
  endfacet
  facet normal -0.785353 0.619049 0
    outer loop
      vertex -45.2082 53.5534 0
      vertex -44.6249 54.2934 3.2
      vertex -44.6249 54.2934 0
    endloop
  endfacet
  facet normal -0.785353 0.619049 0
    outer loop
      vertex -44.6249 54.2934 3.2
      vertex -45.2082 53.5534 0
      vertex -45.2082 53.5534 3.2
    endloop
  endfacet
  facet normal 0.993074 -0.117488 0
    outer loop
      vertex 47.3523 -48.3772 3.2
      vertex 47.463 -47.4415 0
      vertex 47.463 -47.4415 3.2
    endloop
  endfacet
  facet normal 0.993074 -0.117488 0
    outer loop
      vertex 47.463 -47.4415 0
      vertex 47.3523 -48.3772 3.2
      vertex 47.3523 -48.3772 0
    endloop
  endfacet
  facet normal -0.734315 -0.678809 0
    outer loop
      vertex -43.9853 -54.9853 0
      vertex -44.6249 -54.2934 3.2
      vertex -44.6249 -54.2934 0
    endloop
  endfacet
  facet normal -0.734315 -0.678809 0
    outer loop
      vertex -44.6249 -54.2934 3.2
      vertex -43.9853 -54.9853 0
      vertex -43.9853 -54.9853 3.2
    endloop
  endfacet
  facet normal -0.488623 -0.872495 0
    outer loop
      vertex -41.77 -56.7317 0
      vertex -40.9479 -57.1921 3.2
      vertex -41.77 -56.7317 3.2
    endloop
  endfacet
  facet normal -0.488623 -0.872495 -0
    outer loop
      vertex -40.9479 -57.1921 3.2
      vertex -41.77 -56.7317 0
      vertex -40.9479 -57.1921 0
    endloop
  endfacet
  facet normal -0.962475 0.271369 0
    outer loop
      vertex -47.1684 49.3013 0
      vertex -46.9127 50.2082 3.2
      vertex -46.9127 50.2082 0
    endloop
  endfacet
  facet normal -0.962475 0.271369 0
    outer loop
      vertex -46.9127 50.2082 3.2
      vertex -47.1684 49.3013 0
      vertex -47.1684 49.3013 3.2
    endloop
  endfacet
  facet normal 0.872495 0.488623 0
    outer loop
      vertex 46.1921 51.9479 3.2
      vertex 45.7317 52.77 0
      vertex 45.7317 52.77 3.2
    endloop
  endfacet
  facet normal 0.872495 0.488623 0
    outer loop
      vertex 45.7317 52.77 0
      vertex 46.1921 51.9479 3.2
      vertex 46.1921 51.9479 0
    endloop
  endfacet
  facet normal 0.678809 0.734315 -0
    outer loop
      vertex 43.9853 54.9853 0
      vertex 43.2934 55.6249 3.2
      vertex 43.9853 54.9853 3.2
    endloop
  endfacet
  facet normal 0.678809 0.734315 0
    outer loop
      vertex 43.2934 55.6249 3.2
      vertex 43.9853 54.9853 0
      vertex 43.2934 55.6249 0
    endloop
  endfacet
  facet normal 0.962475 0.271369 0
    outer loop
      vertex 47.1684 49.3013 3.2
      vertex 46.9127 50.2082 0
      vertex 46.9127 50.2082 3.2
    endloop
  endfacet
  facet normal 0.962475 0.271369 0
    outer loop
      vertex 46.9127 50.2082 0
      vertex 47.1684 49.3013 3.2
      vertex 47.1684 49.3013 0
    endloop
  endfacet
  facet normal -0.117488 -0.993074 0
    outer loop
      vertex -37.3772 -58.3523 0
      vertex -36.4415 -58.463 3.2
      vertex -37.3772 -58.3523 3.2
    endloop
  endfacet
  facet normal -0.117488 -0.993074 -0
    outer loop
      vertex -36.4415 -58.463 3.2
      vertex -37.3772 -58.3523 0
      vertex -36.4415 -58.463 0
    endloop
  endfacet
  facet normal -0.678809 0.734315 0
    outer loop
      vertex -43.2934 55.6249 0
      vertex -43.9853 54.9853 3.2
      vertex -43.2934 55.6249 3.2
    endloop
  endfacet
  facet normal -0.678809 0.734315 0
    outer loop
      vertex -43.9853 54.9853 3.2
      vertex -43.2934 55.6249 0
      vertex -43.9853 54.9853 0
    endloop
  endfacet
  facet normal -0.619049 0.785353 0
    outer loop
      vertex -42.5534 56.2082 0
      vertex -43.2934 55.6249 3.2
      vertex -42.5534 56.2082 3.2
    endloop
  endfacet
  facet normal -0.619049 0.785353 0
    outer loop
      vertex -43.2934 55.6249 3.2
      vertex -42.5534 56.2082 0
      vertex -43.2934 55.6249 0
    endloop
  endfacet
  facet normal 0.488623 0.872495 -0
    outer loop
      vertex 41.77 56.7317 0
      vertex 40.9479 57.1921 3.2
      vertex 41.77 56.7317 3.2
    endloop
  endfacet
  facet normal 0.488623 0.872495 0
    outer loop
      vertex 40.9479 57.1921 3.2
      vertex 41.77 56.7317 0
      vertex 40.9479 57.1921 0
    endloop
  endfacet
  facet normal 0.619049 0.785353 -0
    outer loop
      vertex 43.2934 55.6249 0
      vertex 42.5534 56.2082 3.2
      vertex 43.2934 55.6249 3.2
    endloop
  endfacet
  facet normal 0.619049 0.785353 0
    outer loop
      vertex 42.5534 56.2082 3.2
      vertex 43.2934 55.6249 0
      vertex 42.5534 56.2082 0
    endloop
  endfacet
  facet normal 0.9382 -0.346094 0
    outer loop
      vertex 46.5866 -51.0922 3.2
      vertex 46.9127 -50.2082 0
      vertex 46.9127 -50.2082 3.2
    endloop
  endfacet
  facet normal 0.9382 -0.346094 0
    outer loop
      vertex 46.9127 -50.2082 0
      vertex 46.5866 -51.0922 3.2
      vertex 46.5866 -51.0922 0
    endloop
  endfacet
  facet normal -0.346094 0.9382 0
    outer loop
      vertex -39.2082 57.9127 0
      vertex -40.0922 57.5866 3.2
      vertex -39.2082 57.9127 3.2
    endloop
  endfacet
  facet normal -0.346094 0.9382 0
    outer loop
      vertex -40.0922 57.5866 3.2
      vertex -39.2082 57.9127 0
      vertex -40.0922 57.5866 0
    endloop
  endfacet
  facet normal 0.117488 0.993074 -0
    outer loop
      vertex 37.3772 58.3523 0
      vertex 36.4415 58.463 3.2
      vertex 37.3772 58.3523 3.2
    endloop
  endfacet
  facet normal 0.117488 0.993074 0
    outer loop
      vertex 36.4415 58.463 3.2
      vertex 37.3772 58.3523 0
      vertex 36.4415 58.463 0
    endloop
  endfacet
  facet normal -0.785353 -0.619049 0
    outer loop
      vertex -44.6249 -54.2934 0
      vertex -45.2082 -53.5534 3.2
      vertex -45.2082 -53.5534 0
    endloop
  endfacet
  facet normal -0.785353 -0.619049 0
    outer loop
      vertex -45.2082 -53.5534 3.2
      vertex -44.6249 -54.2934 0
      vertex -44.6249 -54.2934 3.2
    endloop
  endfacet
  facet normal -0.962475 -0.271369 0
    outer loop
      vertex -46.9127 -50.2082 0
      vertex -47.1684 -49.3013 3.2
      vertex -47.1684 -49.3013 0
    endloop
  endfacet
  facet normal -0.962475 -0.271369 0
    outer loop
      vertex -47.1684 -49.3013 3.2
      vertex -46.9127 -50.2082 0
      vertex -46.9127 -50.2082 3.2
    endloop
  endfacet
  facet normal -0.488623 0.872495 0
    outer loop
      vertex -40.9479 57.1921 0
      vertex -41.77 56.7317 3.2
      vertex -40.9479 57.1921 3.2
    endloop
  endfacet
  facet normal -0.488623 0.872495 0
    outer loop
      vertex -41.77 56.7317 3.2
      vertex -40.9479 57.1921 0
      vertex -41.77 56.7317 0
    endloop
  endfacet
  facet normal -0.418675 0.908136 0
    outer loop
      vertex -40.0922 57.5866 0
      vertex -40.9479 57.1921 3.2
      vertex -40.0922 57.5866 3.2
    endloop
  endfacet
  facet normal -0.418675 0.908136 0
    outer loop
      vertex -40.9479 57.1921 3.2
      vertex -40.0922 57.5866 0
      vertex -40.9479 57.1921 0
    endloop
  endfacet
  facet normal -0.831446 -0.555606 0
    outer loop
      vertex -45.2082 -53.5534 0
      vertex -45.7317 -52.77 3.2
      vertex -45.7317 -52.77 0
    endloop
  endfacet
  facet normal -0.831446 -0.555606 0
    outer loop
      vertex -45.7317 -52.77 3.2
      vertex -45.2082 -53.5534 0
      vertex -45.2082 -53.5534 3.2
    endloop
  endfacet
  facet normal -0.999229 0.0392687 0
    outer loop
      vertex -47.5 46.5 0
      vertex -47.463 47.4415 3.2
      vertex -47.463 47.4415 0
    endloop
  endfacet
  facet normal -0.999229 0.0392687 0
    outer loop
      vertex -47.463 47.4415 3.2
      vertex -47.5 46.5 0
      vertex -47.5 46.5 3.2
    endloop
  endfacet
  facet normal 0.0392687 0.999229 -0
    outer loop
      vertex 36.4415 58.463 0
      vertex 35.5 58.5 3.2
      vertex 36.4415 58.463 3.2
    endloop
  endfacet
  facet normal 0.0392687 0.999229 0
    outer loop
      vertex 35.5 58.5 3.2
      vertex 36.4415 58.463 0
      vertex 35.5 58.5 0
    endloop
  endfacet
  facet normal 0.831446 -0.555606 0
    outer loop
      vertex 45.2082 -53.5534 3.2
      vertex 45.7317 -52.77 0
      vertex 45.7317 -52.77 3.2
    endloop
  endfacet
  facet normal 0.831446 -0.555606 0
    outer loop
      vertex 45.7317 -52.77 0
      vertex 45.2082 -53.5534 3.2
      vertex 45.2082 -53.5534 0
    endloop
  endfacet
  facet normal 0.619049 -0.785353 0
    outer loop
      vertex 42.5534 -56.2082 0
      vertex 43.2934 -55.6249 3.2
      vertex 42.5534 -56.2082 3.2
    endloop
  endfacet
  facet normal 0.619049 -0.785353 0
    outer loop
      vertex 43.2934 -55.6249 3.2
      vertex 42.5534 -56.2082 0
      vertex 43.2934 -55.6249 0
    endloop
  endfacet
  facet normal -0.195177 -0.980768 0
    outer loop
      vertex -38.3013 -58.1684 0
      vertex -37.3772 -58.3523 3.2
      vertex -38.3013 -58.1684 3.2
    endloop
  endfacet
  facet normal -0.195177 -0.980768 -0
    outer loop
      vertex -37.3772 -58.3523 3.2
      vertex -38.3013 -58.1684 0
      vertex -37.3772 -58.3523 0
    endloop
  endfacet
  facet normal 0.962475 -0.271369 0
    outer loop
      vertex 46.9127 -50.2082 3.2
      vertex 47.1684 -49.3013 0
      vertex 47.1684 -49.3013 3.2
    endloop
  endfacet
  facet normal 0.962475 -0.271369 0
    outer loop
      vertex 47.1684 -49.3013 0
      vertex 46.9127 -50.2082 3.2
      vertex 46.9127 -50.2082 0
    endloop
  endfacet
  facet normal 0.734315 0.678809 0
    outer loop
      vertex 44.6249 54.2934 3.2
      vertex 43.9853 54.9853 0
      vertex 43.9853 54.9853 3.2
    endloop
  endfacet
  facet normal 0.734315 0.678809 0
    outer loop
      vertex 43.9853 54.9853 0
      vertex 44.6249 54.2934 3.2
      vertex 44.6249 54.2934 0
    endloop
  endfacet
  facet normal 0.734315 -0.678809 0
    outer loop
      vertex 43.9853 -54.9853 3.2
      vertex 44.6249 -54.2934 0
      vertex 44.6249 -54.2934 3.2
    endloop
  endfacet
  facet normal 0.734315 -0.678809 0
    outer loop
      vertex 44.6249 -54.2934 0
      vertex 43.9853 -54.9853 3.2
      vertex 43.9853 -54.9853 0
    endloop
  endfacet
  facet normal 0 -1 0
    outer loop
      vertex -35.5 -58.5 0
      vertex 35.5 -58.5 3.2
      vertex -35.5 -58.5 3.2
    endloop
  endfacet
  facet normal 0 -1 -0
    outer loop
      vertex 35.5 -58.5 3.2
      vertex -35.5 -58.5 0
      vertex 35.5 -58.5 0
    endloop
  endfacet
  facet normal 0.195177 -0.980768 0
    outer loop
      vertex 37.3772 -58.3523 0
      vertex 38.3013 -58.1684 3.2
      vertex 37.3772 -58.3523 3.2
    endloop
  endfacet
  facet normal 0.195177 -0.980768 0
    outer loop
      vertex 38.3013 -58.1684 3.2
      vertex 37.3772 -58.3523 0
      vertex 38.3013 -58.1684 0
    endloop
  endfacet
  facet normal 0.346094 0.9382 -0
    outer loop
      vertex 40.0922 57.5866 0
      vertex 39.2082 57.9127 3.2
      vertex 40.0922 57.5866 3.2
    endloop
  endfacet
  facet normal 0.346094 0.9382 0
    outer loop
      vertex 39.2082 57.9127 3.2
      vertex 40.0922 57.5866 0
      vertex 39.2082 57.9127 0
    endloop
  endfacet
  facet normal -0.980768 0.195177 0
    outer loop
      vertex -47.3523 48.3772 0
      vertex -47.1684 49.3013 3.2
      vertex -47.1684 49.3013 0
    endloop
  endfacet
  facet normal -0.980768 0.195177 0
    outer loop
      vertex -47.1684 49.3013 3.2
      vertex -47.3523 48.3772 0
      vertex -47.3523 48.3772 3.2
    endloop
  endfacet
  facet normal -0.555606 0.831446 0
    outer loop
      vertex -41.77 56.7317 0
      vertex -42.5534 56.2082 3.2
      vertex -41.77 56.7317 3.2
    endloop
  endfacet
  facet normal -0.555606 0.831446 0
    outer loop
      vertex -42.5534 56.2082 3.2
      vertex -41.77 56.7317 0
      vertex -42.5534 56.2082 0
    endloop
  endfacet
  facet normal -0.555606 -0.831446 0
    outer loop
      vertex -42.5534 -56.2082 0
      vertex -41.77 -56.7317 3.2
      vertex -42.5534 -56.2082 3.2
    endloop
  endfacet
  facet normal -0.555606 -0.831446 -0
    outer loop
      vertex -41.77 -56.7317 3.2
      vertex -42.5534 -56.2082 0
      vertex -41.77 -56.7317 0
    endloop
  endfacet
  facet normal 0.271369 -0.962475 0
    outer loop
      vertex 38.3013 -58.1684 0
      vertex 39.2082 -57.9127 3.2
      vertex 38.3013 -58.1684 3.2
    endloop
  endfacet
  facet normal 0.271369 -0.962475 0
    outer loop
      vertex 39.2082 -57.9127 3.2
      vertex 38.3013 -58.1684 0
      vertex 39.2082 -57.9127 0
    endloop
  endfacet
  facet normal -0.418675 -0.908136 0
    outer loop
      vertex -40.9479 -57.1921 0
      vertex -40.0922 -57.5866 3.2
      vertex -40.9479 -57.1921 3.2
    endloop
  endfacet
  facet normal -0.418675 -0.908136 -0
    outer loop
      vertex -40.0922 -57.5866 3.2
      vertex -40.9479 -57.1921 0
      vertex -40.0922 -57.5866 0
    endloop
  endfacet
  facet normal 0.346094 -0.9382 0
    outer loop
      vertex 39.2082 -57.9127 0
      vertex 40.0922 -57.5866 3.2
      vertex 39.2082 -57.9127 3.2
    endloop
  endfacet
  facet normal 0.346094 -0.9382 0
    outer loop
      vertex 40.0922 -57.5866 3.2
      vertex 39.2082 -57.9127 0
      vertex 40.0922 -57.5866 0
    endloop
  endfacet
  facet normal 0.908136 0.418675 0
    outer loop
      vertex 46.5866 51.0922 3.2
      vertex 46.1921 51.9479 0
      vertex 46.1921 51.9479 3.2
    endloop
  endfacet
  facet normal 0.908136 0.418675 0
    outer loop
      vertex 46.1921 51.9479 0
      vertex 46.5866 51.0922 3.2
      vertex 46.5866 51.0922 0
    endloop
  endfacet
  facet normal -0.619049 -0.785353 0
    outer loop
      vertex -43.2934 -55.6249 0
      vertex -42.5534 -56.2082 3.2
      vertex -43.2934 -55.6249 3.2
    endloop
  endfacet
  facet normal -0.619049 -0.785353 -0
    outer loop
      vertex -42.5534 -56.2082 3.2
      vertex -43.2934 -55.6249 0
      vertex -42.5534 -56.2082 0
    endloop
  endfacet
  facet normal -0.9382 -0.346094 0
    outer loop
      vertex -46.5866 -51.0922 0
      vertex -46.9127 -50.2082 3.2
      vertex -46.9127 -50.2082 0
    endloop
  endfacet
  facet normal -0.9382 -0.346094 0
    outer loop
      vertex -46.9127 -50.2082 3.2
      vertex -46.5866 -51.0922 0
      vertex -46.5866 -51.0922 3.2
    endloop
  endfacet
  facet normal 0.999229 -0.0392687 0
    outer loop
      vertex 47.463 -47.4415 3.2
      vertex 47.5 -46.5 0
      vertex 47.5 -46.5 3.2
    endloop
  endfacet
  facet normal 0.999229 -0.0392687 0
    outer loop
      vertex 47.5 -46.5 0
      vertex 47.463 -47.4415 3.2
      vertex 47.463 -47.4415 0
    endloop
  endfacet
  facet normal -0.872495 -0.488623 0
    outer loop
      vertex -45.7317 -52.77 0
      vertex -46.1921 -51.9479 3.2
      vertex -46.1921 -51.9479 0
    endloop
  endfacet
  facet normal -0.872495 -0.488623 0
    outer loop
      vertex -46.1921 -51.9479 3.2
      vertex -45.7317 -52.77 0
      vertex -45.7317 -52.77 3.2
    endloop
  endfacet
  facet normal -0.117488 0.993074 0
    outer loop
      vertex -36.4415 58.463 0
      vertex -37.3772 58.3523 3.2
      vertex -36.4415 58.463 3.2
    endloop
  endfacet
  facet normal -0.117488 0.993074 0
    outer loop
      vertex -37.3772 58.3523 3.2
      vertex -36.4415 58.463 0
      vertex -37.3772 58.3523 0
    endloop
  endfacet
  facet normal -0.271369 -0.962475 0
    outer loop
      vertex -39.2082 -57.9127 0
      vertex -38.3013 -58.1684 3.2
      vertex -39.2082 -57.9127 3.2
    endloop
  endfacet
  facet normal -0.271369 -0.962475 -0
    outer loop
      vertex -38.3013 -58.1684 3.2
      vertex -39.2082 -57.9127 0
      vertex -38.3013 -58.1684 0
    endloop
  endfacet
  facet normal 0 0 -1
    outer loop
      vertex 35.5 -58.5 0
      vertex 47.5 -46.5 0
      vertex 47.463 -47.4415 0
    endloop
  endfacet
  facet normal 0 0 -1
    outer loop
      vertex 47.5 -46.5 0
      vertex 20.5 -8.75 0
      vertex 47.5 46.5 0
    endloop
  endfacet
  facet normal 0 0 -1
    outer loop
      vertex 35.5 -58.5 0
      vertex 47.463 -47.4415 0
      vertex 47.3523 -48.3772 0
    endloop
  endfacet
  facet normal 0 0 -1
    outer loop
      vertex 20.5 30.75 0
      vertex 47.5 46.5 0
      vertex 20.5 -8.75 0
    endloop
  endfacet
  facet normal 0 0 -1
    outer loop
      vertex 35.5 -58.5 0
      vertex 47.3523 -48.3772 0
      vertex 47.1684 -49.3013 0
    endloop
  endfacet
  facet normal 0 -0 -1
    outer loop
      vertex 35.5 58.5 0
      vertex 47.5 46.5 0
      vertex 20.5 30.75 0
    endloop
  endfacet
  facet normal 0 0 -1
    outer loop
      vertex 35.5 -58.5 0
      vertex 47.1684 -49.3013 0
      vertex 46.9127 -50.2082 0
    endloop
  endfacet
  facet normal 0 0 -1
    outer loop
      vertex 47.5 46.5 0
      vertex 35.5 58.5 0
      vertex 47.463 47.4415 0
    endloop
  endfacet
  facet normal 0 0 -1
    outer loop
      vertex 35.5 -58.5 0
      vertex 46.9127 -50.2082 0
      vertex 46.5866 -51.0922 0
    endloop
  endfacet
  facet normal 0 0 -1
    outer loop
      vertex 47.463 47.4415 0
      vertex 35.5 58.5 0
      vertex 47.3523 48.3772 0
    endloop
  endfacet
  facet normal 0 0 -1
    outer loop
      vertex 35.5 -58.5 0
      vertex 46.5866 -51.0922 0
      vertex 46.1921 -51.9479 0
    endloop
  endfacet
  facet normal 0 0 -1
    outer loop
      vertex 47.3523 48.3772 0
      vertex 35.5 58.5 0
      vertex 47.1684 49.3013 0
    endloop
  endfacet
  facet normal 0 0 -1
    outer loop
      vertex 35.5 -58.5 0
      vertex 46.1921 -51.9479 0
      vertex 45.7317 -52.77 0
    endloop
  endfacet
  facet normal 0 0 -1
    outer loop
      vertex 47.1684 49.3013 0
      vertex 35.5 58.5 0
      vertex 46.9127 50.2082 0
    endloop
  endfacet
  facet normal 0 0 -1
    outer loop
      vertex 35.5 -58.5 0
      vertex 45.7317 -52.77 0
      vertex 45.2082 -53.5534 0
    endloop
  endfacet
  facet normal 0 0 -1
    outer loop
      vertex 46.9127 50.2082 0
      vertex 35.5 58.5 0
      vertex 46.5866 51.0922 0
    endloop
  endfacet
  facet normal 0 0 -1
    outer loop
      vertex 35.5 -58.5 0
      vertex 45.2082 -53.5534 0
      vertex 44.6249 -54.2934 0
    endloop
  endfacet
  facet normal 0 0 -1
    outer loop
      vertex 46.5866 51.0922 0
      vertex 35.5 58.5 0
      vertex 46.1921 51.9479 0
    endloop
  endfacet
  facet normal 0 0 -1
    outer loop
      vertex 35.5 -58.5 0
      vertex 44.6249 -54.2934 0
      vertex 43.9853 -54.9853 0
    endloop
  endfacet
  facet normal 0 0 -1
    outer loop
      vertex 46.1921 51.9479 0
      vertex 35.5 58.5 0
      vertex 45.7317 52.77 0
    endloop
  endfacet
  facet normal 0 0 -1
    outer loop
      vertex 35.5 -58.5 0
      vertex 43.9853 -54.9853 0
      vertex 43.2934 -55.6249 0
    endloop
  endfacet
  facet normal 0 0 -1
    outer loop
      vertex 45.7317 52.77 0
      vertex 35.5 58.5 0
      vertex 45.2082 53.5534 0
    endloop
  endfacet
  facet normal 0 0 -1
    outer loop
      vertex 35.5 -58.5 0
      vertex 43.2934 -55.6249 0
      vertex 42.5534 -56.2082 0
    endloop
  endfacet
  facet normal 0 0 -1
    outer loop
      vertex 45.2082 53.5534 0
      vertex 35.5 58.5 0
      vertex 44.6249 54.2934 0
    endloop
  endfacet
  facet normal 0 0 -1
    outer loop
      vertex 35.5 -58.5 0
      vertex 42.5534 -56.2082 0
      vertex 41.77 -56.7317 0
    endloop
  endfacet
  facet normal 0 0 -1
    outer loop
      vertex 44.6249 54.2934 0
      vertex 35.5 58.5 0
      vertex 43.9853 54.9853 0
    endloop
  endfacet
  facet normal 0 0 -1
    outer loop
      vertex 35.5 -58.5 0
      vertex 41.77 -56.7317 0
      vertex 40.9479 -57.1921 0
    endloop
  endfacet
  facet normal 0 0 -1
    outer loop
      vertex 43.9853 54.9853 0
      vertex 35.5 58.5 0
      vertex 43.2934 55.6249 0
    endloop
  endfacet
  facet normal 0 0 -1
    outer loop
      vertex 35.5 -58.5 0
      vertex 40.9479 -57.1921 0
      vertex 40.0922 -57.5866 0
    endloop
  endfacet
  facet normal 0 0 -1
    outer loop
      vertex 43.2934 55.6249 0
      vertex 35.5 58.5 0
      vertex 42.5534 56.2082 0
    endloop
  endfacet
  facet normal 0 0 -1
    outer loop
      vertex 35.5 -58.5 0
      vertex 40.0922 -57.5866 0
      vertex 39.2082 -57.9127 0
    endloop
  endfacet
  facet normal 0 0 -1
    outer loop
      vertex 42.5534 56.2082 0
      vertex 35.5 58.5 0
      vertex 41.77 56.7317 0
    endloop
  endfacet
  facet normal 0 0 -1
    outer loop
      vertex 35.5 -58.5 0
      vertex 39.2082 -57.9127 0
      vertex 38.3013 -58.1684 0
    endloop
  endfacet
  facet normal 0 0 -1
    outer loop
      vertex 41.77 56.7317 0
      vertex 35.5 58.5 0
      vertex 40.9479 57.1921 0
    endloop
  endfacet
  facet normal 0 0 -1
    outer loop
      vertex 35.5 -58.5 0
      vertex 38.3013 -58.1684 0
      vertex 37.3772 -58.3523 0
    endloop
  endfacet
  facet normal 0 0 -1
    outer loop
      vertex 40.9479 57.1921 0
      vertex 35.5 58.5 0
      vertex 40.0922 57.5866 0
    endloop
  endfacet
  facet normal 0 0 -1
    outer loop
      vertex 35.5 -58.5 0
      vertex 37.3772 -58.3523 0
      vertex 36.4415 -58.463 0
    endloop
  endfacet
  facet normal 0 0 -1
    outer loop
      vertex 40.0922 57.5866 0
      vertex 35.5 58.5 0
      vertex 39.2082 57.9127 0
    endloop
  endfacet
  facet normal -0 0 -1
    outer loop
      vertex 47.5 -46.5 0
      vertex 35.5 -58.5 0
      vertex 20.5 -8.75 0
    endloop
  endfacet
  facet normal 0 0 -1
    outer loop
      vertex 39.2082 57.9127 0
      vertex 35.5 58.5 0
      vertex 38.3013 58.1684 0
    endloop
  endfacet
  facet normal 0 0 -1
    outer loop
      vertex 38.3013 58.1684 0
      vertex 35.5 58.5 0
      vertex 37.3772 58.3523 0
    endloop
  endfacet
  facet normal 0 0 -1
    outer loop
      vertex 35.5 -58.5 0
      vertex -20.5 -8.75 0
      vertex 20.5 -8.75 0
    endloop
  endfacet
  facet normal 0 0 -1
    outer loop
      vertex -47.5 -46.5 0
      vertex -20.5 -8.75 0
      vertex -35.5 -58.5 0
    endloop
  endfacet
  facet normal 0 0 -1
    outer loop
      vertex -35.5 -58.5 0
      vertex -20.5 -8.75 0
      vertex 35.5 -58.5 0
    endloop
  endfacet
  facet normal 0 0 -1
    outer loop
      vertex 37.3772 58.3523 0
      vertex 35.5 58.5 0
      vertex 36.4415 58.463 0
    endloop
  endfacet
  facet normal 0 0 -1
    outer loop
      vertex -20.5 30.75 0
      vertex 35.5 58.5 0
      vertex 20.5 30.75 0
    endloop
  endfacet
  facet normal 0 0 -1
    outer loop
      vertex -20.5 30.75 0
      vertex -35.5 58.5 0
      vertex 35.5 58.5 0
    endloop
  endfacet
  facet normal 0 0 -1
    outer loop
      vertex -47.5 46.5 0
      vertex -20.5 -8.75 0
      vertex -47.5 -46.5 0
    endloop
  endfacet
  facet normal 0 0 -1
    outer loop
      vertex -47.5 -46.5 0
      vertex -35.5 -58.5 0
      vertex -36.4415 -58.463 0
    endloop
  endfacet
  facet normal 0 0 -1
    outer loop
      vertex -20.5 -8.75 0
      vertex -47.5 46.5 0
      vertex -20.5 30.75 0
    endloop
  endfacet
  facet normal 0 0 -1
    outer loop
      vertex -47.5 -46.5 0
      vertex -36.4415 -58.463 0
      vertex -37.3772 -58.3523 0
    endloop
  endfacet
  facet normal 0 0 -1
    outer loop
      vertex -20.5 30.75 0
      vertex -47.5 46.5 0
      vertex -35.5 58.5 0
    endloop
  endfacet
  facet normal 0 0 -1
    outer loop
      vertex -47.5 -46.5 0
      vertex -37.3772 -58.3523 0
      vertex -38.3013 -58.1684 0
    endloop
  endfacet
  facet normal 0 0 -1
    outer loop
      vertex -35.5 58.5 0
      vertex -47.5 46.5 0
      vertex -36.4415 58.463 0
    endloop
  endfacet
  facet normal 0 0 -1
    outer loop
      vertex -47.5 -46.5 0
      vertex -38.3013 -58.1684 0
      vertex -39.2082 -57.9127 0
    endloop
  endfacet
  facet normal 0 0 -1
    outer loop
      vertex -36.4415 58.463 0
      vertex -47.5 46.5 0
      vertex -37.3772 58.3523 0
    endloop
  endfacet
  facet normal 0 0 -1
    outer loop
      vertex -47.5 -46.5 0
      vertex -39.2082 -57.9127 0
      vertex -40.0922 -57.5866 0
    endloop
  endfacet
  facet normal 0 0 -1
    outer loop
      vertex -37.3772 58.3523 0
      vertex -47.5 46.5 0
      vertex -38.3013 58.1684 0
    endloop
  endfacet
  facet normal 0 0 -1
    outer loop
      vertex -47.5 -46.5 0
      vertex -40.0922 -57.5866 0
      vertex -40.9479 -57.1921 0
    endloop
  endfacet
  facet normal 0 0 -1
    outer loop
      vertex -38.3013 58.1684 0
      vertex -47.5 46.5 0
      vertex -39.2082 57.9127 0
    endloop
  endfacet
  facet normal 0 0 -1
    outer loop
      vertex -47.5 -46.5 0
      vertex -40.9479 -57.1921 0
      vertex -41.77 -56.7317 0
    endloop
  endfacet
  facet normal 0 0 -1
    outer loop
      vertex -39.2082 57.9127 0
      vertex -47.5 46.5 0
      vertex -40.0922 57.5866 0
    endloop
  endfacet
  facet normal 0 0 -1
    outer loop
      vertex -47.5 -46.5 0
      vertex -41.77 -56.7317 0
      vertex -42.5534 -56.2082 0
    endloop
  endfacet
  facet normal 0 0 -1
    outer loop
      vertex -40.0922 57.5866 0
      vertex -47.5 46.5 0
      vertex -40.9479 57.1921 0
    endloop
  endfacet
  facet normal 0 0 -1
    outer loop
      vertex -47.5 -46.5 0
      vertex -42.5534 -56.2082 0
      vertex -43.2934 -55.6249 0
    endloop
  endfacet
  facet normal 0 0 -1
    outer loop
      vertex -40.9479 57.1921 0
      vertex -47.5 46.5 0
      vertex -41.77 56.7317 0
    endloop
  endfacet
  facet normal 0 0 -1
    outer loop
      vertex -47.5 -46.5 0
      vertex -43.2934 -55.6249 0
      vertex -43.9853 -54.9853 0
    endloop
  endfacet
  facet normal 0 0 -1
    outer loop
      vertex -41.77 56.7317 0
      vertex -47.5 46.5 0
      vertex -42.5534 56.2082 0
    endloop
  endfacet
  facet normal 0 0 -1
    outer loop
      vertex -47.5 -46.5 0
      vertex -43.9853 -54.9853 0
      vertex -44.6249 -54.2934 0
    endloop
  endfacet
  facet normal 0 0 -1
    outer loop
      vertex -42.5534 56.2082 0
      vertex -47.5 46.5 0
      vertex -43.2934 55.6249 0
    endloop
  endfacet
  facet normal 0 0 -1
    outer loop
      vertex -47.5 -46.5 0
      vertex -44.6249 -54.2934 0
      vertex -45.2082 -53.5534 0
    endloop
  endfacet
  facet normal 0 0 -1
    outer loop
      vertex -43.2934 55.6249 0
      vertex -47.5 46.5 0
      vertex -43.9853 54.9853 0
    endloop
  endfacet
  facet normal 0 0 -1
    outer loop
      vertex -47.5 -46.5 0
      vertex -45.2082 -53.5534 0
      vertex -45.7317 -52.77 0
    endloop
  endfacet
  facet normal 0 0 -1
    outer loop
      vertex -43.9853 54.9853 0
      vertex -47.5 46.5 0
      vertex -44.6249 54.2934 0
    endloop
  endfacet
  facet normal 0 0 -1
    outer loop
      vertex -47.5 -46.5 0
      vertex -45.7317 -52.77 0
      vertex -46.1921 -51.9479 0
    endloop
  endfacet
  facet normal 0 0 -1
    outer loop
      vertex -44.6249 54.2934 0
      vertex -47.5 46.5 0
      vertex -45.2082 53.5534 0
    endloop
  endfacet
  facet normal 0 0 -1
    outer loop
      vertex -47.5 -46.5 0
      vertex -46.1921 -51.9479 0
      vertex -46.5866 -51.0922 0
    endloop
  endfacet
  facet normal 0 0 -1
    outer loop
      vertex -45.2082 53.5534 0
      vertex -47.5 46.5 0
      vertex -45.7317 52.77 0
    endloop
  endfacet
  facet normal 0 0 -1
    outer loop
      vertex -47.5 -46.5 0
      vertex -46.5866 -51.0922 0
      vertex -46.9127 -50.2082 0
    endloop
  endfacet
  facet normal 0 0 -1
    outer loop
      vertex -45.7317 52.77 0
      vertex -47.5 46.5 0
      vertex -46.1921 51.9479 0
    endloop
  endfacet
  facet normal 0 0 -1
    outer loop
      vertex -47.5 -46.5 0
      vertex -46.9127 -50.2082 0
      vertex -47.1684 -49.3013 0
    endloop
  endfacet
  facet normal 0 0 -1
    outer loop
      vertex -46.1921 51.9479 0
      vertex -47.5 46.5 0
      vertex -46.5866 51.0922 0
    endloop
  endfacet
  facet normal 0 0 -1
    outer loop
      vertex -47.5 -46.5 0
      vertex -47.1684 -49.3013 0
      vertex -47.3523 -48.3772 0
    endloop
  endfacet
  facet normal 0 0 -1
    outer loop
      vertex -46.5866 51.0922 0
      vertex -47.5 46.5 0
      vertex -46.9127 50.2082 0
    endloop
  endfacet
  facet normal 0 0 -1
    outer loop
      vertex -47.5 -46.5 0
      vertex -47.3523 -48.3772 0
      vertex -47.463 -47.4415 0
    endloop
  endfacet
  facet normal 0 0 -1
    outer loop
      vertex -46.9127 50.2082 0
      vertex -47.5 46.5 0
      vertex -47.1684 49.3013 0
    endloop
  endfacet
  facet normal 0 0 -1
    outer loop
      vertex -47.1684 49.3013 0
      vertex -47.5 46.5 0
      vertex -47.3523 48.3772 0
    endloop
  endfacet
  facet normal 0 0 -1
    outer loop
      vertex -47.3523 48.3772 0
      vertex -47.5 46.5 0
      vertex -47.463 47.4415 0
    endloop
  endfacet
  facet normal 0 0 1
    outer loop
      vertex 35.5 58.5 3.2
      vertex 47.5 46.5 3.2
      vertex 47.463 47.4415 3.2
    endloop
  endfacet
  facet normal 0 0 1
    outer loop
      vertex 47.5 46.5 3.2
      vertex 20.5 -8.75 3.2
      vertex 47.5 -46.5 3.2
    endloop
  endfacet
  facet normal 0 0 1
    outer loop
      vertex 35.5 58.5 3.2
      vertex 47.463 47.4415 3.2
      vertex 47.3523 48.3772 3.2
    endloop
  endfacet
  facet normal 0 -0 1
    outer loop
      vertex 35.5 -58.5 3.2
      vertex 47.5 -46.5 3.2
      vertex 20.5 -8.75 3.2
    endloop
  endfacet
  facet normal 0 0 1
    outer loop
      vertex 35.5 58.5 3.2
      vertex 47.3523 48.3772 3.2
      vertex 47.1684 49.3013 3.2
    endloop
  endfacet
  facet normal 0 0 1
    outer loop
      vertex 47.5 -46.5 3.2
      vertex 35.5 -58.5 3.2
      vertex 47.463 -47.4415 3.2
    endloop
  endfacet
  facet normal 0 0 1
    outer loop
      vertex 35.5 58.5 3.2
      vertex 47.1684 49.3013 3.2
      vertex 46.9127 50.2082 3.2
    endloop
  endfacet
  facet normal 0 0 1
    outer loop
      vertex 47.463 -47.4415 3.2
      vertex 35.5 -58.5 3.2
      vertex 47.3523 -48.3772 3.2
    endloop
  endfacet
  facet normal 0 0 1
    outer loop
      vertex 35.5 58.5 3.2
      vertex 46.9127 50.2082 3.2
      vertex 46.5866 51.0922 3.2
    endloop
  endfacet
  facet normal 0 0 1
    outer loop
      vertex 47.3523 -48.3772 3.2
      vertex 35.5 -58.5 3.2
      vertex 47.1684 -49.3013 3.2
    endloop
  endfacet
  facet normal 0 0 1
    outer loop
      vertex 35.5 58.5 3.2
      vertex 46.5866 51.0922 3.2
      vertex 46.1921 51.9479 3.2
    endloop
  endfacet
  facet normal 0 0 1
    outer loop
      vertex 47.1684 -49.3013 3.2
      vertex 35.5 -58.5 3.2
      vertex 46.9127 -50.2082 3.2
    endloop
  endfacet
  facet normal 0 0 1
    outer loop
      vertex 35.5 58.5 3.2
      vertex 46.1921 51.9479 3.2
      vertex 45.7317 52.77 3.2
    endloop
  endfacet
  facet normal 0 0 1
    outer loop
      vertex 46.9127 -50.2082 3.2
      vertex 35.5 -58.5 3.2
      vertex 46.5866 -51.0922 3.2
    endloop
  endfacet
  facet normal 0 0 1
    outer loop
      vertex 35.5 58.5 3.2
      vertex 45.7317 52.77 3.2
      vertex 45.2082 53.5534 3.2
    endloop
  endfacet
  facet normal 0 0 1
    outer loop
      vertex 46.5866 -51.0922 3.2
      vertex 35.5 -58.5 3.2
      vertex 46.1921 -51.9479 3.2
    endloop
  endfacet
  facet normal 0 0 1
    outer loop
      vertex 35.5 58.5 3.2
      vertex 45.2082 53.5534 3.2
      vertex 44.6249 54.2934 3.2
    endloop
  endfacet
  facet normal 0 0 1
    outer loop
      vertex 46.1921 -51.9479 3.2
      vertex 35.5 -58.5 3.2
      vertex 45.7317 -52.77 3.2
    endloop
  endfacet
  facet normal 0 0 1
    outer loop
      vertex 35.5 58.5 3.2
      vertex 44.6249 54.2934 3.2
      vertex 43.9853 54.9853 3.2
    endloop
  endfacet
  facet normal 0 0 1
    outer loop
      vertex 45.7317 -52.77 3.2
      vertex 35.5 -58.5 3.2
      vertex 45.2082 -53.5534 3.2
    endloop
  endfacet
  facet normal 0 0 1
    outer loop
      vertex 35.5 58.5 3.2
      vertex 43.9853 54.9853 3.2
      vertex 43.2934 55.6249 3.2
    endloop
  endfacet
  facet normal 0 0 1
    outer loop
      vertex 45.2082 -53.5534 3.2
      vertex 35.5 -58.5 3.2
      vertex 44.6249 -54.2934 3.2
    endloop
  endfacet
  facet normal 0 0 1
    outer loop
      vertex 35.5 58.5 3.2
      vertex 43.2934 55.6249 3.2
      vertex 42.5534 56.2082 3.2
    endloop
  endfacet
  facet normal 0 0 1
    outer loop
      vertex 44.6249 -54.2934 3.2
      vertex 35.5 -58.5 3.2
      vertex 43.9853 -54.9853 3.2
    endloop
  endfacet
  facet normal 0 0 1
    outer loop
      vertex 35.5 58.5 3.2
      vertex 42.5534 56.2082 3.2
      vertex 41.77 56.7317 3.2
    endloop
  endfacet
  facet normal 0 0 1
    outer loop
      vertex 43.9853 -54.9853 3.2
      vertex 35.5 -58.5 3.2
      vertex 43.2934 -55.6249 3.2
    endloop
  endfacet
  facet normal 0 0 1
    outer loop
      vertex 35.5 58.5 3.2
      vertex 41.77 56.7317 3.2
      vertex 40.9479 57.1921 3.2
    endloop
  endfacet
  facet normal 0 0 1
    outer loop
      vertex 43.2934 -55.6249 3.2
      vertex 35.5 -58.5 3.2
      vertex 42.5534 -56.2082 3.2
    endloop
  endfacet
  facet normal 0 0 1
    outer loop
      vertex 35.5 58.5 3.2
      vertex 40.9479 57.1921 3.2
      vertex 40.0922 57.5866 3.2
    endloop
  endfacet
  facet normal 0 0 1
    outer loop
      vertex 42.5534 -56.2082 3.2
      vertex 35.5 -58.5 3.2
      vertex 41.77 -56.7317 3.2
    endloop
  endfacet
  facet normal 0 0 1
    outer loop
      vertex 35.5 58.5 3.2
      vertex 40.0922 57.5866 3.2
      vertex 39.2082 57.9127 3.2
    endloop
  endfacet
  facet normal 0 0 1
    outer loop
      vertex 41.77 -56.7317 3.2
      vertex 35.5 -58.5 3.2
      vertex 40.9479 -57.1921 3.2
    endloop
  endfacet
  facet normal 0 0 1
    outer loop
      vertex 35.5 58.5 3.2
      vertex 39.2082 57.9127 3.2
      vertex 38.3013 58.1684 3.2
    endloop
  endfacet
  facet normal 0 0 1
    outer loop
      vertex 40.9479 -57.1921 3.2
      vertex 35.5 -58.5 3.2
      vertex 40.0922 -57.5866 3.2
    endloop
  endfacet
  facet normal 0 0 1
    outer loop
      vertex 35.5 58.5 3.2
      vertex 38.3013 58.1684 3.2
      vertex 37.3772 58.3523 3.2
    endloop
  endfacet
  facet normal 0 0 1
    outer loop
      vertex 40.0922 -57.5866 3.2
      vertex 35.5 -58.5 3.2
      vertex 39.2082 -57.9127 3.2
    endloop
  endfacet
  facet normal 0 0 1
    outer loop
      vertex 35.5 58.5 3.2
      vertex 37.3772 58.3523 3.2
      vertex 36.4415 58.463 3.2
    endloop
  endfacet
  facet normal 0 0 1
    outer loop
      vertex 39.2082 -57.9127 3.2
      vertex 35.5 -58.5 3.2
      vertex 38.3013 -58.1684 3.2
    endloop
  endfacet
  facet normal 0 0 1
    outer loop
      vertex 47.5 46.5 3.2
      vertex 35.5 58.5 3.2
      vertex 20.5 30.75 3.2
    endloop
  endfacet
  facet normal 0 0 1
    outer loop
      vertex 38.3013 -58.1684 3.2
      vertex 35.5 -58.5 3.2
      vertex 37.3772 -58.3523 3.2
    endloop
  endfacet
  facet normal 0 0 1
    outer loop
      vertex 47.5 46.5 3.2
      vertex 20.5 30.75 3.2
      vertex 20.5 -8.75 3.2
    endloop
  endfacet
  facet normal 0 0 1
    outer loop
      vertex 35.5 58.5 3.2
      vertex -20.5 30.75 3.2
      vertex 20.5 30.75 3.2
    endloop
  endfacet
  facet normal -0 0 1
    outer loop
      vertex -47.5 46.5 3.2
      vertex -20.5 30.75 3.2
      vertex -35.5 58.5 3.2
    endloop
  endfacet
  facet normal -0 0 1
    outer loop
      vertex -35.5 58.5 3.2
      vertex -20.5 30.75 3.2
      vertex 35.5 58.5 3.2
    endloop
  endfacet
  facet normal 0 0 1
    outer loop
      vertex 37.3772 -58.3523 3.2
      vertex 35.5 -58.5 3.2
      vertex 36.4415 -58.463 3.2
    endloop
  endfacet
  facet normal -0 0 1
    outer loop
      vertex -20.5 -8.75 3.2
      vertex 35.5 -58.5 3.2
      vertex 20.5 -8.75 3.2
    endloop
  endfacet
  facet normal 0 0 1
    outer loop
      vertex -20.5 -8.75 3.2
      vertex -35.5 -58.5 3.2
      vertex 35.5 -58.5 3.2
    endloop
  endfacet
  facet normal 0 0 1
    outer loop
      vertex -20.5 30.75 3.2
      vertex -47.5 46.5 3.2
      vertex -20.5 -8.75 3.2
    endloop
  endfacet
  facet normal 0 0 1
    outer loop
      vertex -47.5 46.5 3.2
      vertex -35.5 58.5 3.2
      vertex -36.4415 58.463 3.2
    endloop
  endfacet
  facet normal 0 0 1
    outer loop
      vertex -47.5 -46.5 3.2
      vertex -20.5 -8.75 3.2
      vertex -47.5 46.5 3.2
    endloop
  endfacet
  facet normal 0 0 1
    outer loop
      vertex -47.5 46.5 3.2
      vertex -36.4415 58.463 3.2
      vertex -37.3772 58.3523 3.2
    endloop
  endfacet
  facet normal 0 0 1
    outer loop
      vertex -20.5 -8.75 3.2
      vertex -47.5 -46.5 3.2
      vertex -35.5 -58.5 3.2
    endloop
  endfacet
  facet normal 0 0 1
    outer loop
      vertex -47.5 46.5 3.2
      vertex -37.3772 58.3523 3.2
      vertex -38.3013 58.1684 3.2
    endloop
  endfacet
  facet normal 0 0 1
    outer loop
      vertex -35.5 -58.5 3.2
      vertex -47.5 -46.5 3.2
      vertex -36.4415 -58.463 3.2
    endloop
  endfacet
  facet normal 0 0 1
    outer loop
      vertex -47.5 46.5 3.2
      vertex -38.3013 58.1684 3.2
      vertex -39.2082 57.9127 3.2
    endloop
  endfacet
  facet normal 0 0 1
    outer loop
      vertex -36.4415 -58.463 3.2
      vertex -47.5 -46.5 3.2
      vertex -37.3772 -58.3523 3.2
    endloop
  endfacet
  facet normal 0 0 1
    outer loop
      vertex -47.5 46.5 3.2
      vertex -39.2082 57.9127 3.2
      vertex -40.0922 57.5866 3.2
    endloop
  endfacet
  facet normal 0 0 1
    outer loop
      vertex -37.3772 -58.3523 3.2
      vertex -47.5 -46.5 3.2
      vertex -38.3013 -58.1684 3.2
    endloop
  endfacet
  facet normal 0 0 1
    outer loop
      vertex -47.5 46.5 3.2
      vertex -40.0922 57.5866 3.2
      vertex -40.9479 57.1921 3.2
    endloop
  endfacet
  facet normal 0 0 1
    outer loop
      vertex -38.3013 -58.1684 3.2
      vertex -47.5 -46.5 3.2
      vertex -39.2082 -57.9127 3.2
    endloop
  endfacet
  facet normal 0 0 1
    outer loop
      vertex -47.5 46.5 3.2
      vertex -40.9479 57.1921 3.2
      vertex -41.77 56.7317 3.2
    endloop
  endfacet
  facet normal 0 0 1
    outer loop
      vertex -39.2082 -57.9127 3.2
      vertex -47.5 -46.5 3.2
      vertex -40.0922 -57.5866 3.2
    endloop
  endfacet
  facet normal 0 0 1
    outer loop
      vertex -47.5 46.5 3.2
      vertex -41.77 56.7317 3.2
      vertex -42.5534 56.2082 3.2
    endloop
  endfacet
  facet normal 0 0 1
    outer loop
      vertex -40.0922 -57.5866 3.2
      vertex -47.5 -46.5 3.2
      vertex -40.9479 -57.1921 3.2
    endloop
  endfacet
  facet normal 0 0 1
    outer loop
      vertex -47.5 46.5 3.2
      vertex -42.5534 56.2082 3.2
      vertex -43.2934 55.6249 3.2
    endloop
  endfacet
  facet normal 0 0 1
    outer loop
      vertex -40.9479 -57.1921 3.2
      vertex -47.5 -46.5 3.2
      vertex -41.77 -56.7317 3.2
    endloop
  endfacet
  facet normal 0 0 1
    outer loop
      vertex -47.5 46.5 3.2
      vertex -43.2934 55.6249 3.2
      vertex -43.9853 54.9853 3.2
    endloop
  endfacet
  facet normal 0 0 1
    outer loop
      vertex -41.77 -56.7317 3.2
      vertex -47.5 -46.5 3.2
      vertex -42.5534 -56.2082 3.2
    endloop
  endfacet
  facet normal 0 0 1
    outer loop
      vertex -47.5 46.5 3.2
      vertex -43.9853 54.9853 3.2
      vertex -44.6249 54.2934 3.2
    endloop
  endfacet
  facet normal 0 0 1
    outer loop
      vertex -42.5534 -56.2082 3.2
      vertex -47.5 -46.5 3.2
      vertex -43.2934 -55.6249 3.2
    endloop
  endfacet
  facet normal 0 0 1
    outer loop
      vertex -47.5 46.5 3.2
      vertex -44.6249 54.2934 3.2
      vertex -45.2082 53.5534 3.2
    endloop
  endfacet
  facet normal 0 0 1
    outer loop
      vertex -43.2934 -55.6249 3.2
      vertex -47.5 -46.5 3.2
      vertex -43.9853 -54.9853 3.2
    endloop
  endfacet
  facet normal 0 0 1
    outer loop
      vertex -47.5 46.5 3.2
      vertex -45.2082 53.5534 3.2
      vertex -45.7317 52.77 3.2
    endloop
  endfacet
  facet normal 0 0 1
    outer loop
      vertex -43.9853 -54.9853 3.2
      vertex -47.5 -46.5 3.2
      vertex -44.6249 -54.2934 3.2
    endloop
  endfacet
  facet normal 0 0 1
    outer loop
      vertex -47.5 46.5 3.2
      vertex -45.7317 52.77 3.2
      vertex -46.1921 51.9479 3.2
    endloop
  endfacet
  facet normal 0 0 1
    outer loop
      vertex -44.6249 -54.2934 3.2
      vertex -47.5 -46.5 3.2
      vertex -45.2082 -53.5534 3.2
    endloop
  endfacet
  facet normal 0 0 1
    outer loop
      vertex -47.5 46.5 3.2
      vertex -46.1921 51.9479 3.2
      vertex -46.5866 51.0922 3.2
    endloop
  endfacet
  facet normal 0 0 1
    outer loop
      vertex -45.2082 -53.5534 3.2
      vertex -47.5 -46.5 3.2
      vertex -45.7317 -52.77 3.2
    endloop
  endfacet
  facet normal 0 0 1
    outer loop
      vertex -47.5 46.5 3.2
      vertex -46.5866 51.0922 3.2
      vertex -46.9127 50.2082 3.2
    endloop
  endfacet
  facet normal 0 0 1
    outer loop
      vertex -45.7317 -52.77 3.2
      vertex -47.5 -46.5 3.2
      vertex -46.1921 -51.9479 3.2
    endloop
  endfacet
  facet normal 0 0 1
    outer loop
      vertex -47.5 46.5 3.2
      vertex -46.9127 50.2082 3.2
      vertex -47.1684 49.3013 3.2
    endloop
  endfacet
  facet normal 0 0 1
    outer loop
      vertex -46.1921 -51.9479 3.2
      vertex -47.5 -46.5 3.2
      vertex -46.5866 -51.0922 3.2
    endloop
  endfacet
  facet normal 0 0 1
    outer loop
      vertex -47.5 46.5 3.2
      vertex -47.1684 49.3013 3.2
      vertex -47.3523 48.3772 3.2
    endloop
  endfacet
  facet normal 0 0 1
    outer loop
      vertex -46.5866 -51.0922 3.2
      vertex -47.5 -46.5 3.2
      vertex -46.9127 -50.2082 3.2
    endloop
  endfacet
  facet normal 0 0 1
    outer loop
      vertex -47.5 46.5 3.2
      vertex -47.3523 48.3772 3.2
      vertex -47.463 47.4415 3.2
    endloop
  endfacet
  facet normal 0 0 1
    outer loop
      vertex -46.9127 -50.2082 3.2
      vertex -47.5 -46.5 3.2
      vertex -47.1684 -49.3013 3.2
    endloop
  endfacet
  facet normal 0 0 1
    outer loop
      vertex -47.1684 -49.3013 3.2
      vertex -47.5 -46.5 3.2
      vertex -47.3523 -48.3772 3.2
    endloop
  endfacet
  facet normal 0 0 1
    outer loop
      vertex -47.3523 -48.3772 3.2
      vertex -47.5 -46.5 3.2
      vertex -47.463 -47.4415 3.2
    endloop
  endfacet
  facet normal 0.418675 0.908136 -0
    outer loop
      vertex 40.9479 57.1921 0
      vertex 40.0922 57.5866 3.2
      vertex 40.9479 57.1921 3.2
    endloop
  endfacet
  facet normal 0.418675 0.908136 0
    outer loop
      vertex 40.0922 57.5866 3.2
      vertex 40.9479 57.1921 0
      vertex 40.0922 57.5866 0
    endloop
  endfacet
  facet normal -0.678809 -0.734315 0
    outer loop
      vertex -43.9853 -54.9853 0
      vertex -43.2934 -55.6249 3.2
      vertex -43.9853 -54.9853 3.2
    endloop
  endfacet
  facet normal -0.678809 -0.734315 -0
    outer loop
      vertex -43.2934 -55.6249 3.2
      vertex -43.9853 -54.9853 0
      vertex -43.2934 -55.6249 0
    endloop
  endfacet
  facet normal -0.271369 0.962475 0
    outer loop
      vertex -38.3013 58.1684 0
      vertex -39.2082 57.9127 3.2
      vertex -38.3013 58.1684 3.2
    endloop
  endfacet
  facet normal -0.271369 0.962475 0
    outer loop
      vertex -39.2082 57.9127 3.2
      vertex -38.3013 58.1684 0
      vertex -39.2082 57.9127 0
    endloop
  endfacet
  facet normal -0.908136 -0.418675 0
    outer loop
      vertex -46.1921 -51.9479 0
      vertex -46.5866 -51.0922 3.2
      vertex -46.5866 -51.0922 0
    endloop
  endfacet
  facet normal -0.908136 -0.418675 0
    outer loop
      vertex -46.5866 -51.0922 3.2
      vertex -46.1921 -51.9479 0
      vertex -46.1921 -51.9479 3.2
    endloop
  endfacet
  facet normal -0.980768 -0.195177 0
    outer loop
      vertex -47.1684 -49.3013 0
      vertex -47.3523 -48.3772 3.2
      vertex -47.3523 -48.3772 0
    endloop
  endfacet
  facet normal -0.980768 -0.195177 0
    outer loop
      vertex -47.3523 -48.3772 3.2
      vertex -47.1684 -49.3013 0
      vertex -47.1684 -49.3013 3.2
    endloop
  endfacet
  facet normal -1 0 0
    outer loop
      vertex 20.5 -8.75 0
      vertex 20.5 30.75 3.2
      vertex 20.5 30.75 0
    endloop
  endfacet
  facet normal -1 -0 0
    outer loop
      vertex 20.5 30.75 3.2
      vertex 20.5 -8.75 0
      vertex 20.5 -8.75 3.2
    endloop
  endfacet
  facet normal 1 -0 0
    outer loop
      vertex -20.5 -8.75 3.2
      vertex -20.5 30.75 0
      vertex -20.5 30.75 3.2
    endloop
  endfacet
  facet normal 1 0 0
    outer loop
      vertex -20.5 30.75 0
      vertex -20.5 -8.75 3.2
      vertex -20.5 -8.75 0
    endloop
  endfacet
  facet normal 0 -1 0
    outer loop
      vertex -20.5 30.75 0
      vertex 20.5 30.75 3.2
      vertex -20.5 30.75 3.2
    endloop
  endfacet
  facet normal 0 -1 -0
    outer loop
      vertex 20.5 30.75 3.2
      vertex -20.5 30.75 0
      vertex 20.5 30.75 0
    endloop
  endfacet
  facet normal 0 1 -0
    outer loop
      vertex 20.5 -8.75 0
      vertex -20.5 -8.75 3.2
      vertex 20.5 -8.75 3.2
    endloop
  endfacet
  facet normal 0 1 0
    outer loop
      vertex -20.5 -8.75 3.2
      vertex 20.5 -8.75 0
      vertex -20.5 -8.75 0
    endloop
  endfacet
endsolid OpenSCAD_Model
